<svg width="134" height="57" viewBox="0 0 134 57" fill="none" xmlns="http://www.w3.org/2000/svg">
<path d="M9.49951 52.547C9.49951 55.0581 11.5424 57.0002 14.2007 57.0002C16.2305 57.0002 17.9329 55.825 18.5353 54.0314H17.0817C16.5579 55.0952 15.5757 55.8127 14.2007 55.8127C12.315 55.8127 10.8745 54.3901 10.8745 52.547C10.8745 50.7039 12.315 49.2814 14.2007 49.2814C15.5757 49.2814 16.5579 49.9989 17.0817 51.0627H18.5353C17.9329 49.269 16.2305 48.0939 14.2007 48.0939C11.5424 48.0939 9.49951 50.036 9.49951 52.547Z" fill="white"/>
<path d="M27.5256 55.689C27.3161 55.689 27.1982 55.5777 27.1982 55.3797V54.1551C27.1982 53.45 26.9494 53.0047 26.4387 52.745C27.0935 52.2873 27.434 51.5822 27.434 50.7534C27.434 49.3185 26.3863 48.2176 24.5006 48.2176H20.1661V56.8765H21.4756V53.2892H21.9339V53.3016H24.9328C25.5613 53.3016 25.8887 53.6108 25.8887 54.2046V55.825C25.8887 56.5178 26.2685 56.8765 27.0018 56.8765H27.8137V55.689H27.5256ZM21.4756 49.3433H24.422C25.4697 49.3433 26.059 49.8504 26.059 50.7534C26.059 51.6564 25.4697 52.1636 24.422 52.1636H21.4756V49.3433Z" fill="white"/>
<path d="M36.9751 48.2176H35.4692L32.5489 52.2254L29.6418 48.2176H28.0703L31.868 53.3882V56.8765H33.1775V53.3758L36.9751 48.2176Z" fill="white"/>
<path d="M42.2944 48.2176H38.2872V56.8765H39.5968V53.2892H42.2944C44.1801 53.2892 45.2277 52.1883 45.2277 50.7534C45.2277 49.3185 44.1801 48.2176 42.2944 48.2176ZM42.2551 52.1388H39.5968V49.3804H42.2551C43.3027 49.3804 43.8527 49.8504 43.8527 50.7534C43.8527 51.6564 43.3027 52.1388 42.2551 52.1388Z" fill="white"/>
<path d="M53.6793 48.2176H45.8221V49.4051H49.096V56.8765H50.4055V49.4051H53.6793V48.2176Z" fill="white"/>
<path d="M58.5911 57.0002C61.2887 57.0002 63.3709 55.0581 63.3709 52.547C63.3709 50.036 61.2887 48.0939 58.5911 48.0939C55.8935 48.0939 53.8113 50.036 53.8113 52.547C53.8113 55.0581 55.8935 57.0002 58.5911 57.0002ZM58.5911 55.8127C56.6661 55.8127 55.1863 54.3901 55.1863 52.547C55.1863 50.7039 56.6661 49.2814 58.5911 49.2814C60.5161 49.2814 61.9959 50.7039 61.9959 52.547C61.9959 54.3901 60.5161 55.8127 58.5911 55.8127Z" fill="white"/>
<path d="M71.2977 49.4051V48.2176H65.1429V56.8765H66.4524V53.1284H70.9048V51.9657H66.4524V49.4051H71.2977Z" fill="white"/>
<path d="M76.9297 57.0002C79.6273 57.0002 81.7095 55.0581 81.7095 52.547C81.7095 50.036 79.6273 48.0939 76.9297 48.0939C74.232 48.0939 72.1499 50.036 72.1499 52.547C72.1499 55.0581 74.232 57.0002 76.9297 57.0002ZM76.9297 55.8127C75.0047 55.8127 73.5249 54.3901 73.5249 52.547C73.5249 50.7039 75.0047 49.2814 76.9297 49.2814C78.8547 49.2814 80.3344 50.7039 80.3344 52.547C80.3344 54.3901 78.8547 55.8127 76.9297 55.8127Z" fill="white"/>
<path d="M90.841 55.689C90.6315 55.689 90.5136 55.5777 90.5136 55.3797V54.1551C90.5136 53.45 90.2648 53.0047 89.7541 52.745C90.4088 52.2873 90.7493 51.5822 90.7493 50.7534C90.7493 49.3185 89.7017 48.2176 87.816 48.2176H83.4814V56.8765H84.791V53.2892H85.2493V53.3016H88.2481C88.8767 53.3016 89.2041 53.6108 89.2041 54.2046V55.825C89.2041 56.5178 89.5838 56.8765 90.3172 56.8765H91.1291V55.689H90.841ZM84.791 49.3433H87.7374C88.785 49.3433 89.3743 49.8504 89.3743 50.7534C89.3743 51.6564 88.785 52.1636 87.7374 52.1636H84.791V49.3433Z" fill="white"/>
<path d="M99.5769 48.2176H91.7197V49.4051H94.9935V56.8765H96.3031V49.4051H99.5769V48.2176Z" fill="white"/>
<path d="M104.813 57.0002C107.092 57.0002 108.808 55.4292 108.808 53.3387V48.2176H107.498V53.3387C107.498 54.7489 106.346 55.8127 104.813 55.8127C103.281 55.8127 102.129 54.7489 102.129 53.3387V48.2176H100.819V53.3387C100.819 55.4292 102.535 57.0002 104.813 57.0002Z" fill="white"/>
<path d="M117.837 48.2176V55.0705L112.638 48.2176H111.028V56.8765H112.337V49.838L117.706 56.8765H119.147V48.2176H117.837Z" fill="white"/>
<path d="M127.656 49.3804V48.2176H121.501V56.8765H127.656V55.7137H122.811V53.1284H127.263V51.9657H122.811V49.3804H127.656Z" fill="white"/>
<path opacity="0.9" d="M27.9063 0H109.844L83.1253 17.8126H0L27.9063 0Z" fill="url(#paint0_linear_198_648)"/>
<path opacity="0.9" d="M51.0643 25.5313H133.002L106.283 8.90627H23.158L51.0643 25.5313Z" fill="url(#paint1_linear_198_648)"/>
<defs>
<linearGradient id="paint0_linear_198_648" x1="2.05914e-06" y1="-12.2671" x2="103.544" y2="34.8789" gradientUnits="userSpaceOnUse">
<stop stop-color="#E541D3"/>
<stop offset="1" stop-color="#02F1F6"/>
</linearGradient>
<linearGradient id="paint1_linear_198_648" x1="23.158" y1="36.9807" x2="124.136" y2="-12.2813" gradientUnits="userSpaceOnUse">
<stop stop-color="#E541D3"/>
<stop offset="1" stop-color="#02F1F6"/>
</linearGradient>
</defs>
</svg>
